<svg xmlns="http://www.w3.org/2000/svg" width="150" height="68" viewBox="0 0 150 68"><path d="M14.471 50.485c0 .906-.244 1.774-.765 2.504-.486.729-1.182 1.287-2.12 1.739-.835.383-1.843.591-2.852.591a8.64 8.64 0 0 1-1.634-.174 10.523 10.523 0 0 1-4.763-2.294l1.878-2.053c1.842 1.566 3.406 1.879 4.379 1.879.662 0 1.288-.141 1.843-.383.452-.209 1.253-.729 1.253-1.81 0-1.077-.94-1.737-3.096-2.119-.104-.034-2.746-.521-3.719-1.078-1.46-.835-2.225-2.121-2.225-3.72 0-.87.278-1.702.765-2.435.451-.626 1.078-1.112 1.981-1.528a6.465 6.465 0 0 1 2.747-.591c.382 0 .799.033 1.182.069a9.144 9.144 0 0 1 4.276 1.911l-1.739 2.018c-1.564-1.217-2.919-1.392-3.581-1.392-.625 0-1.216.104-1.703.348-.696.349-1.147.975-1.147 1.6 0 1.044.833 1.599 2.956 2.052.034 0 2.885.626 3.685 1.077.938.487 1.286.869 1.668 1.355.487.697.731 1.532.731 2.434zm17.21-3.857v8.552H28.69v-8.552c0-2.608-2.086-4.762-4.693-4.762-2.572 0-4.693 2.153-4.693 4.762v8.552h-2.99V29.662h2.99v11.124c1.355-1.042 2.99-1.842 4.693-1.842 2.051 0 3.998.765 5.458 2.225a7.733 7.733 0 0 1 2.226 5.459zm14.768-7.371h2.99V55.18h-2.99v-1.842c-1.496 1.251-3.372 2.19-5.354 2.19a8.363 8.363 0 0 1-5.91-2.399c-1.563-1.6-2.433-3.686-2.433-5.911s.869-4.311 2.433-5.909a8.368 8.368 0 0 1 5.91-2.398c1.982 0 3.858.939 5.354 2.189v-1.843zm0 7.961c0-2.954-2.399-5.388-5.354-5.388s-5.354 2.434-5.354 5.388c0 2.956 2.399 5.39 5.354 5.39 2.954-.001 5.354-2.434 5.354-5.39zm8.683-6.326c1.009-1.112 3.964-1.981 5.806-1.981l-.731 2.988c-2.78 0-5.075 2.121-5.075 4.799v8.482h-2.99V39.257h2.99v1.635zm20.544 7.056H63.404v.07c.347 2.643 2.329 4.624 4.623 4.659 1.426-.07 2.886-.661 3.895-1.669l2.503 1.494a9.397 9.397 0 0 1-2.122 1.773c-1.216.729-2.711 1.111-4.207 1.181-2.085 0-3.998-.868-5.388-2.433a8.197 8.197 0 0 1-2.156-5.006c-.035-.244-.035-.486-.035-.73 0-.625.068-1.251.209-1.877a8.36 8.36 0 0 1 1.981-3.858 7.27 7.27 0 0 1 5.388-2.401c2.086 0 3.999.87 5.424 2.401.973 1.077 1.704 2.398 1.981 3.858.244 1.426.21 2.227.176 2.538zm-3.129-2.504l-.035-.068c-.695-2.051-2.468-3.442-4.415-3.442-1.912 0-3.685 1.392-4.415 3.442l-.036.068h8.901zm37.944 1.184v8.552h-2.989v-8.552c0-2.608-2.121-4.762-4.694-4.762-2.606 0-4.727 2.153-4.727 4.762v8.552h-2.992v-8.552c0-2.608-2.084-4.762-4.692-4.762-2.572 0-4.692 2.153-4.692 4.762v8.552h-2.989V39.257h2.989v1.529c1.355-1.042 2.989-1.842 4.692-1.842 2.051 0 4 .905 5.459 2.364.279.278.521.558.73.869.241-.312.487-.591.764-.869 1.462-1.459 3.408-2.364 5.458-2.364 2.052 0 3.965.765 5.425 2.225a7.634 7.634 0 0 1 2.258 5.459zm15.12-7.371h2.991V55.18h-2.991v-1.842c-1.493 1.251-3.371 2.19-5.353 2.19a8.368 8.368 0 0 1-5.912-2.399c-1.563-1.6-2.432-3.686-2.432-5.911s.868-4.311 2.432-5.909a8.375 8.375 0 0 1 5.912-2.398c1.981 0 3.859.939 5.353 2.189v-1.843zm.704 7.961c0-2.954-2.398-5.388-5.354-5.388s-5.354 2.434-5.354 5.388c0 2.956 2.397 5.39 5.354 5.39 2.956-.001 5.354-2.434 5.354-5.39zm21.118 0c0 2.226-.869 4.312-2.469 5.911-1.564 1.565-3.649 2.399-5.876 2.399-1.979 0-3.858-.939-5.354-2.19v10.95h-2.99V39.257h2.99V41.1c1.495-1.25 3.374-2.189 5.354-2.189 2.227 0 4.312.834 5.876 2.398 1.6 1.598 2.469 3.683 2.469 5.909zm-2.991 0c0-2.954-2.397-5.388-5.354-5.388-2.954 0-5.354 2.434-5.354 5.388 0 2.956 2.399 5.39 5.354 5.39 2.956-.001 5.354-2.434 5.354-5.39zM86.694 11.898c3.127 0 3.527 6.173.481 7.054v11.222h-1.042V18.953c-3.047-.882-2.563-7.055.561-7.055zm-5.386 7.055v11.222h-1.122V18.953c-2.166-.802-2.326-4.97-1.684-6.973h.883l.399 4.329.481-4.329h1.123l.398 4.329.482-4.329h.803c.642 2.002.402 6.171-1.763 6.973z" fill="#053D5D"/><path fill="#469CB7" d="M56.041 8.089a9.958 9.958 0 0 0-5.14 1.42c.264-.152.513-.276.824-.434-.311.157-.56.282-.824.434a9.994 9.994 0 0 0-4.86 8.58c0 5.521 4.477 10 10 10 5.524 0 10-4.479 10-10 0-5.525-4.476-10-10-10z"/><path fill="none" d="M63.437 17.196l2.639 6.63a10.805 10.805 0 0 0 1.768-5.943c0-.777-.084-1.536-.237-2.266l-4.17 1.579z"/><path fill="none" d="M55.731 19.701l-1.288-3.417 10.731-4.06A10.858 10.858 0 0 0 55.9 7.018c-1.946 0-3.771.514-5.351 1.409l.618-.242 7.918 20.085a10.856 10.856 0 0 0 4.318-2.533l-3.094-7.77-4.578 1.734zm-10.694-1.818c0 5.813 4.565 10.561 10.307 10.849L48.09 10.335a10.825 10.825 0 0 0-3.053 7.548z"/><path fill="#FFF" d="M50.549 8.428c-.077.045-.155.088-.232.136a10.976 10.976 0 0 0-2.228 1.771l7.254 18.397a10.861 10.861 0 0 0 3.743-.46L51.167 8.187l-.618.241z"/><path fill="#FFF" d="M66.67 15.661a10.613 10.613 0 0 0-1.382-3.392l-10.973 4.059 1.314 3.417 4.684-1.733 3.162 7.772a10.979 10.979 0 0 0 1.629-1.914l-2.699-6.631 4.265-1.578z"/><circle fill="none" stroke="#469CB7" stroke-width="2" cx="55.996" cy="17.937" r="12.424"/><path opacity=".46" fill="#8A795D" d="M55.26 11.48a3.313 3.313 0 0 0-2.611 5.054l3.03 4.766a.203.203 0 0 0 .188.095.205.205 0 0 0 .176-.116l2.426-5.104c.23-.495.333-1.045.3-1.592a3.315 3.315 0 0 0-3.509-3.103zm.304 4.958a1.656 1.656 0 1 1 1.552-1.754 1.659 1.659 0 0 1-1.552 1.754z"/><path fill="#053D5D" d="M55.957 11.47a3.318 3.318 0 0 0-2.915 4.887l2.734 4.942a.206.206 0 0 0 .362 0l2.735-4.945c.259-.48.397-1.024.397-1.573a3.316 3.316 0 0 0-3.313-3.311zm0 4.968a1.656 1.656 0 1 1 .002-3.31 1.656 1.656 0 0 1-.002 3.31z"/><circle fill="#FFF" cx="55.898" cy="14.878" r="1.8"/><circle fill="#053D5D" cx="55.891" cy="14.925" r="1.447"/><path d="M40.442 4.335l-.774 2.885h-2.71c-1.267 0-2.392 1.161-2.392 2.463v4.362h4.96v2.885h-4.96v13.23H31.54V16.931h-2.394v-2.885h2.394V9.612c0-2.955 2.392-5.277 5.348-5.277h3.554zm71.17 0h3.026V30.16h-3.026v-1.866c-1.514 1.267-3.413 2.217-5.418 2.217a8.472 8.472 0 0 1-5.982-2.428c-1.582-1.618-2.462-3.73-2.462-5.981s.88-4.362 2.462-5.98a8.472 8.472 0 0 1 5.982-2.428c2.005 0 3.904.95 5.418 2.217V4.335zm0 17.768c0-2.99-2.428-5.453-5.418-5.453-2.989 0-5.419 2.462-5.419 5.453s2.43 5.453 5.419 5.453c2.99 0 5.418-2.462 5.418-5.453z" fill="#469CB7"/><circle fill="none" stroke="#469CB7" stroke-width="3" cx="83.39" cy="18.263" r="12.098"/></svg>