<svg xmlns="http://www.w3.org/2000/svg" width="48.03" height="67.393"><path opacity=".5" fill="#8A795D" d="M21.222.083C8.784.839-.718 11.514.042 23.878a22.406 22.406 0 0 0 3.365 10.489l20.679 32.334c.275.433.764.68 1.277.648.514-.03.969-.335 1.189-.798l16.563-34.61a22.362 22.362 0 0 0 2.046-10.809C44.403 8.769 33.662-.674 21.222.083zm2.071 33.633c-6.22.379-11.59-4.343-11.972-10.524-.379-6.182 4.371-11.52 10.591-11.896 6.22-.379 11.59 4.342 11.971 10.524.381 6.181-4.369 11.518-10.59 11.896z"/><path fill="#469CB7" d="M25.427 0C12.964 0 2.824 10.077 2.824 22.463c0 3.72.936 7.405 2.715 10.676l18.652 33.529a1.414 1.414 0 0 0 2.471 0l18.66-33.54a22.4 22.4 0 0 0 2.707-10.665C48.03 10.077 37.891 0 25.427 0zm0 33.695c-6.23 0-11.301-5.038-11.301-11.232 0-6.192 5.07-11.231 11.301-11.231s11.302 5.039 11.302 11.231c0 6.194-5.071 11.232-11.302 11.232z"/><path fill="#B39F8F" d="M41.533 22.703c0 9.378-7.651 16.979-17.088 16.979-9.436 0-17.087-7.602-17.087-16.979 0-9.382 7.651-16.983 17.087-16.983 9.437 0 17.088 7.601 17.088 16.983z"/><path fill="#FFF" d="M42.517 22.703c0 9.378-7.651 16.979-17.09 16.979-9.436 0-17.087-7.602-17.087-16.979 0-9.382 7.651-16.983 17.087-16.983 9.438 0 17.09 7.601 17.09 16.983z"/><g fill="none" stroke="#023F5E" stroke-width=".5"><path d="M37.116 19.45l-6.885-2.806-6.887 2.806-2.413 6.135h1.43v6.079h5.007v-5.722h5.722v5.722h5.007v-6.079h1.431l-2.412-6.135zm-5.455 3.631H28.8v-2.86h2.861v2.86z"/><path d="M22.362 15.214a4.292 4.292 0 1 0-8.583 0v16.45h7.153v-4.649h-2.1l3.53-8.983v-2.818z"/></g></svg>