<svg xmlns="http://www.w3.org/2000/svg" width="48.03" height="67.393"><path opacity=".5" fill="#8A795D" d="M21.222.083C8.783.839-.718 11.514.042 23.878a22.395 22.395 0 0 0 3.365 10.489l20.679 32.334c.275.433.764.68 1.277.648.514-.03.97-.335 1.189-.798l16.563-34.61a22.362 22.362 0 0 0 2.046-10.809C44.403 8.769 33.663-.674 21.222.083zm2.071 33.633c-6.22.379-11.59-4.343-11.971-10.524-.38-6.182 4.371-11.52 10.59-11.896 6.219-.379 11.59 4.342 11.971 10.524.38 6.181-4.371 11.518-10.59 11.896z"/><path fill="#469CB7" d="M25.427 0C12.964 0 2.825 10.077 2.825 22.463a22.4 22.4 0 0 0 2.714 10.676l18.652 33.529a1.415 1.415 0 0 0 2.471 0l18.66-33.54a22.4 22.4 0 0 0 2.707-10.665C48.03 10.077 37.89 0 25.427 0zm0 33.695c-6.232 0-11.301-5.038-11.301-11.232 0-6.192 5.069-11.231 11.301-11.231 6.231 0 11.302 5.039 11.302 11.231 0 6.194-5.07 11.232-11.302 11.232z"/><path fill="#B39F8F" d="M41.534 22.703c0 9.378-7.65 16.979-17.089 16.979-9.436 0-17.087-7.602-17.087-16.979 0-9.382 7.652-16.983 17.087-16.983 9.438 0 17.089 7.601 17.089 16.983z"/><path fill="#FFF" d="M42.515 22.703c0 9.378-7.649 16.979-17.088 16.979-9.436 0-17.087-7.602-17.087-16.979 0-9.382 7.651-16.983 17.087-16.983 9.439 0 17.088 7.601 17.088 16.983z"/><g fill="none" stroke="#023F5E" stroke-width=".6"><path opacity=".75" d="M29.545 21.251a.731.731 0 0 0 .187.023c.243 0 .469-.122.551-.311.184-.422.764-.649 1.3-.505 1.143.305 2.393-.178 2.779-1.077.105-.242-.059-.502-.364-.584-.308-.082-.636.049-.739.287-.183.422-.764.646-1.302.506-1.142-.304-2.39.179-2.778 1.077-.102.241.058.502.366.584zM30.923 18.056c.06.016.123.024.186.024.243 0 .469-.12.554-.313a.897.897 0 0 1 .518-.464c.247-.095.523-.11.781-.041 1.145.307 2.391-.178 2.781-1.077.102-.242-.062-.502-.367-.583-.303-.081-.635.047-.74.286-.178.422-.762.649-1.299.507a2.704 2.704 0 0 0-1.674.085c-.523.202-.916.558-1.104.991-.107.241.058.503.364.585zM32.299 14.857a.698.698 0 0 0 .188.024c.242 0 .472-.119.552-.31.135-.313.567-.479.961-.375.486.133 1.008.105 1.469-.074s.806-.488.969-.873c.107-.237-.057-.499-.363-.578-.306-.085-.635.045-.74.284a.647.647 0 0 1-.381.344.95.95 0 0 1-.578.029c-1.004-.266-2.098.155-2.439.947-.104.242.06.501.362.582z"/><path opacity=".75" d="M30.305 15.957c.232-.34.483-.761.75-1.205.875-1.464 2.073-3.47 3.465-4.033.508-.207.942-.211 1.334-.019.678.336 1.074 1.178 1.057 1.767-.09 2.714-.721 5.566-1.872 8.485-.039.097-.122.288-.241.555l-.994.346c-.023.01-.043.016-.064.026a2.171 2.171 0 0 1-.93.206 2.177 2.177 0 0 1-.929-.206l-.416-.196a3.652 3.652 0 0 0-1.548-.336h-.021a3.645 3.645 0 0 0-1.567.336l-.415.196c-.229.109-.49.164-.744.188.013-.04.029-.078.045-.119.158-.426.33-.848.512-1.266.066-.16.14-.317.208-.476a34.105 34.105 0 0 1 .687-1.42 28.298 28.298 0 0 1 1.683-2.829zm-7.427 1.087c.065-.069.133-.134.197-.2a1.56 1.56 0 0 0 .121-.15.796.796 0 0 0 .109-.683l2.432-.42c.018.06.034.118.063.172.111.209.306.384.576.508l.277.116c.077.032.156.065.234.101.039.017.078.03.115.049.069.029.137.066.203.097.06.028.115.058.172.089.063.035.125.074.189.114a2.706 2.706 0 0 1 .318.245c.088.083.174.171.245.277a31.52 31.52 0 0 0-.704 1.309c-.037.07-.074.136-.108.202-.638.129-1.255.367-2.019.793-.96.539-1.674.682-2.852.547l-.354-1.274c-.239-.865.281-1.385.786-1.892zm2.89-2.785a.313.313 0 0 1 .044-.004c.11 0 .214.062.239.148a.16.16 0 0 1-.036.143.246.246 0 0 1-.149.085l-3.22.553c-.126.022-.258-.044-.286-.146-.029-.099.057-.203.183-.224l1.709-.295 1.516-.26zm-1.884 7.095c-.046.002-.09.003-.133.007-.32.024-.634.088-.931.194l-.114-.403c.171.013.337.023.493.023 1.018 0 1.837-.237 2.778-.766.296-.166.559-.29.806-.395-.053.118-.104.239-.155.358-.039.085-.079.172-.115.258-.172.408-.336.819-.486 1.234l-.388-.183a3.658 3.658 0 0 0-1.549-.337l-.021.001c-.064.002-.124.008-.185.009zm-3.022-2.85c0-.002-.005-.005-.005-.006-.007-.011-.019-.018-.026-.025a7.455 7.455 0 0 0-.302-.293l-.098-.084a5.15 5.15 0 0 0-.257-.206c-.029-.02-.057-.042-.085-.063a3.461 3.461 0 0 0-.331-.21l-.092-.049a4.712 4.712 0 0 0-.249-.12l-.122-.05a2.723 2.723 0 0 0-.265-.085c-.027-.01-.055-.021-.085-.028a3.631 3.631 0 0 0-.287-.056c-.014-.002-.023-.001-.034-.002-.021-.005-.038-.011-.058-.013-.07-.007-.132-.004-.201-.009-.044-.001-.092-.008-.137-.008l-.044.001c-.089 0-.177.009-.264.018-.047.006-.09.007-.132.014a3.994 3.994 0 0 0-.336.068c-.019.004-.034.007-.051.013-.29.075-.563.186-.822.317a.701.701 0 0 1-.08-.326c0-.271.152-.521.415-.691l.382-.249-.249-.337a1.161 1.161 0 0 1-.236-.688c0-.745.738-1.35 1.684-1.381l.707-.023-.164-.541a.899.899 0 0 1-.044-.268c0-.59.586-1.088 1.335-1.133l.539-.035v-.453c.016-.412.448-.745.977-.745.304 0 .522.11.65.202l.41.289.392-.304a.957.957 0 0 1 .679-.181c.312.028.596.22.687.466a.473.473 0 0 1 .028.245l-.068.51h.656c.836 0 1.537.517 1.598 1.175l.024.3.362.102c.911.25 1.51.93 1.49 1.687-.011.327-.143.64-.385.913-.389-.26-.81-.436-1.162-.583-.094-.038-.18-.075-.268-.112-.028-.014-.056-.031-.069-.08-.012-.065.019-.145.082-.202.255-.232.356-.55.274-.848l-.07-.254c-.07-.254-.266-.473-.543-.612a1.505 1.505 0 0 0-.936-.133l-.156.026h-.005l-1.711.295-1.67.286c-.323.057-.599.208-.778.43a.8.8 0 0 0-.169.734l.036.126v.003l.033.124c.089.307.357.562.723.687.092.032.167.089.195.148.012.034.004.052-.028.096v.001l-.184.187a9.523 9.523 0 0 0-.198.201l-.069.069c-.046.053-.095.105-.144.161a6.157 6.157 0 0 0-.204.256c-.025.036-.049.066-.071.102a2.703 2.703 0 0 0-.124.201 2.1 2.1 0 0 0-.185.403.412.412 0 0 0-.012.053 1.952 1.952 0 0 0-.065.293 2.542 2.542 0 0 0-.009.123c-.009.053-.019.105-.019.161m-7.694 1.914c.246-.365.845-.643 1.885-.877a3.394 3.394 0 0 0 1.301-.589c.166-.126.323-.231.473-.326.469-.302.874-.464 1.24-.503a1.521 1.521 0 0 1 .364.006l.084.018c.056.01.11.022.164.038.036.012.07.026.104.04.052.02.101.037.152.062.041.018.08.043.121.063.045.027.093.053.14.082.046.027.087.063.134.092.044.033.089.063.133.096.049.04.099.087.146.127.041.038.083.069.124.109.056.052.109.111.166.17.035.036.072.07.107.107.062.07.128.148.192.226.026.033.057.065.084.099.092.116.184.24.28.368.427.594.571 1.478.383 2.244-.031-.006-.061-.008-.092-.012a2.065 2.065 0 0 1-.628-.178l-.417-.197a3.662 3.662 0 0 0-1.548-.337l-.021.002a3.67 3.67 0 0 0-1.569.335l-.203.097a2.716 2.716 0 0 1-2.286 0l-.784-.371a1.188 1.188 0 0 0-.331-.1c-.088-.364-.054-.656.102-.891zm21.505 12.763c-.058.904-1.005 1.609-2.153 1.609H16.159c-1.147 0-2.093-.705-2.152-1.619l-.97-10.845.507.239a4.133 4.133 0 0 0 1.782.385 4.127 4.127 0 0 0 1.78-.385l.202-.096a2.22 2.22 0 0 1 1.862 0l.416.199a3.674 3.674 0 0 0 1.711.325l.157-.004c.007 0 .012-.003.021-.003a3.64 3.64 0 0 0 1.147-.295c.032-.011.071-.011.103-.023l.414-.199a2.2 2.2 0 0 1 1.859 0l.415.199a3.71 3.71 0 0 0 1.426.331l.032.001c.168.003.341 0 .509-.021.096-.008.189-.027.284-.046a3.526 3.526 0 0 0 .888-.264l.414-.199a2.2 2.2 0 0 1 1.86 0l.416.199c.48.225 1.021.337 1.561.335h.028c.523 0 1.048-.106 1.517-.322l1.143-.4c.025-.008.043-.026.065-.038l.09-.031-.973 10.968z"/></g></svg>