<svg xmlns="http://www.w3.org/2000/svg" width="48.03" height="67.393"><path opacity=".5" fill="#8A795D" d="M21.223.083C8.783.839-.718 11.514.042 23.878a22.395 22.395 0 0 0 3.365 10.489l20.68 32.334c.274.433.764.68 1.277.648a1.4 1.4 0 0 0 1.188-.798l16.564-34.61a22.374 22.374 0 0 0 2.046-10.809C44.402 8.769 33.662-.674 21.223.083zm2.07 33.633c-6.22.379-11.59-4.343-11.971-10.524s4.37-11.52 10.591-11.896c6.219-.379 11.59 4.342 11.971 10.524.38 6.181-4.371 11.518-10.591 11.896z"/><path fill="#469CB7" d="M25.428 0C12.964 0 2.824 10.077 2.824 22.463c0 3.72.937 7.405 2.715 10.676l18.652 33.529a1.415 1.415 0 0 0 2.471 0l18.66-33.54a22.4 22.4 0 0 0 2.707-10.665C48.03 10.077 37.891 0 25.428 0zm0 33.695c-6.232 0-11.302-5.038-11.302-11.232 0-6.192 5.069-11.231 11.302-11.231 6.23 0 11.301 5.039 11.301 11.231 0 6.194-5.071 11.232-11.301 11.232z"/><path fill="#B39F8F" d="M41.534 22.703c0 9.378-7.651 16.979-17.089 16.979-9.436 0-17.088-7.602-17.088-16.979 0-9.382 7.652-16.983 17.088-16.983 9.438 0 17.089 7.601 17.089 16.983z"/><path fill="#FFF" d="M42.516 22.703c0 9.378-7.65 16.979-17.088 16.979-9.437 0-17.088-7.602-17.088-16.979 0-9.382 7.651-16.983 17.088-16.983 9.437 0 17.088 7.601 17.088 16.983z"/><g fill="none" stroke="#023F5E" stroke-width=".5"><path d="M22.338 14.651a1.944 1.944 0 0 0 1.939-1.94 1.949 1.949 0 0 0-1.939-1.939 1.943 1.943 0 0 0-1.94 1.939 1.938 1.938 0 0 0 1.94 1.94zM15.264 24.845v-5.951l3.463-1.866v1.765c-.001.334.092.478.219.602l1.983 2.188c.888.9 2.164-.344 1.358-1.246l-1.755-1.939v-3.692c-.011-1.138-1.548-2.175-2.645-1.607l-4.638 2.5c-.613.352-.858.956-.86 1.576v7.693c.003 2.095 2.875 2.098 2.875-.023zM28.549 14.651a1.94 1.94 0 1 0 .001-3.879 1.94 1.94 0 0 0-.001 3.879zM30.354 18.396l-1.754 1.94c-.807.902.47 2.146 1.359 1.246l1.98-2.188c.13-.124.221-.268.217-.602v-1.765l3.467 1.866v5.951c-.001 2.121 2.872 2.119 2.874.021v-7.693c-.002-.62-.248-1.225-.862-1.576l-4.637-2.5c-1.096-.567-2.633.47-2.645 1.607v3.693h.001z"/><path d="M32.659 26.438l-2.119-1.06-.083-.041a.355.355 0 0 0-.127-.026.4.4 0 0 0-.26.1l-.076.093-3.006 3.365h-.671l.992-2.431h-3.884l.992 2.431h-.67l-3.005-3.365-.077-.092a.4.4 0 0 0-.26-.101.429.429 0 0 0-.129.026l-.08.041-2.12 1.06h-7.291v3.24H39.95v-3.24h-7.291z"/><path d="M24.966 16.716v9.722c0 .517.803.517.803 0v-9.722c0-.517-.803-.517-.803 0z"/><path d="M24.657 23.771c-.632-.632-1.719-.571-1.719-.571s-.06 1.085.572 1.718c.634.633 1.72.573 1.72.573s.062-1.088-.573-1.72zM24.657 19.72c-.632-.632-1.719-.573-1.719-.573s-.06 1.087.572 1.719c.634.635 1.72.573 1.72.573s.062-1.085-.573-1.719zM26.079 22.15c.632-.632 1.718-.572 1.718-.572s.062 1.087-.572 1.718c-.634.634-1.718.571-1.718.571s-.062-1.084.572-1.717zM26.079 18.101c.632-.634 1.718-.573 1.718-.573s.062 1.087-.572 1.719c-.634.634-1.718.573-1.718.573s-.062-1.087.572-1.719z"/></g></svg>