<svg xmlns="http://www.w3.org/2000/svg" width="48.03" height="67.393"><path opacity=".5" fill="#8A795D" d="M21.223.083C8.783.839-.718 11.514.043 23.878a22.405 22.405 0 0 0 3.364 10.489l20.68 32.334c.274.433.764.68 1.277.648a1.4 1.4 0 0 0 1.188-.798l16.564-34.61a22.374 22.374 0 0 0 2.046-10.809C44.402 8.769 33.662-.674 21.223.083zm2.07 33.633c-6.22.379-11.59-4.343-11.971-10.524s4.37-11.52 10.591-11.896c6.219-.379 11.59 4.342 11.971 10.524.38 6.181-4.371 11.518-10.591 11.896z"/><path fill="#469CB7" d="M25.428 0C12.964 0 2.824 10.077 2.824 22.463c0 3.72.937 7.405 2.715 10.676l18.652 33.529a1.415 1.415 0 0 0 2.471 0l18.66-33.54a22.4 22.4 0 0 0 2.707-10.665C48.03 10.077 37.891 0 25.428 0zm0 33.695c-6.232 0-11.302-5.038-11.302-11.232 0-6.192 5.069-11.231 11.302-11.231 6.23 0 11.301 5.039 11.301 11.231 0 6.194-5.071 11.232-11.301 11.232z"/><path fill="#B39F8F" d="M41.534 22.703c0 9.378-7.651 16.979-17.089 16.979-9.436 0-17.088-7.602-17.088-16.979 0-9.382 7.652-16.983 17.088-16.983 9.438 0 17.089 7.601 17.089 16.983z"/><path fill="#FFF" d="M42.516 22.703c0 9.378-7.65 16.979-17.088 16.979-9.437 0-17.088-7.602-17.088-16.979 0-9.382 7.651-16.983 17.088-16.983 9.437 0 17.088 7.601 17.088 16.983z"/><g fill="none" stroke="#043E5D" stroke-width=".5"><path d="M35.035 19.078c-.656 0-1.192.534-1.192 1.188v4.603c.63.287 1.011.868 1.011 1.501 0 .423-.169.821-.475 1.133l-2.444 2.68c-.111.141-.263.36-.34.603a1.71 1.71 0 0 0-.059.446h-.772a2.21 2.21 0 0 1 .094-.678c.132-.422.396-.767.552-.952l2.405-2.576a.947.947 0 0 0-1.377-1.293l-4.988 5.009c-.862.901-.807 1.823-.807 2.512l.006 1.808h4.279V34.3c0-.492.096-.82.485-1.186l3.93-4.174a3.653 3.653 0 0 0 .878-2.371v-6.304a1.19 1.19 0 0 0-1.186-1.187zM17.225 25.73a.947.947 0 0 0-1.378 1.294l2.405 2.578c.156.183.42.527.552.949.071.218.09.433.096.678h-.776a1.491 1.491 0 0 0-.057-.446 1.959 1.959 0 0 0-.34-.602L15.283 27.5a1.608 1.608 0 0 1-.475-1.133c0-.633.381-1.214 1.01-1.501v-4.603a1.188 1.188 0 0 0-2.376 0v6.304c0 .872.314 1.712.876 2.371l3.932 4.173c.39.368.485.694.485 1.187v.759h4.279l.005-1.808c0-.688.057-1.61-.806-2.512l-4.988-5.007zM19.519 11.938c.648.533 1.657.38 1.657.38s-.043-1.019-.69-1.553c-.646-.533-1.656-.381-1.656-.381s.041 1.02.689 1.554z"/><path d="M32.43 14.139h-1.636v-.631c0-.467-.176-.902-.384-1.311-.115-.229-.244-.45-.357-.681a2.014 2.014 0 0 1-.189-.522c.107-.069.146-.216.124-.343-.022-.143-.161-.22-.296-.22h-1.001c-.134 0-.261.059-.304.199-.037.13.006.29.119.363-.053.319-.236.619-.386.898-.198.366-.395.74-.49 1.148-.079.337-.055.699-.055 1.046v.052h-1.221c-.335-.353-.71-.677-1.085-.893-.085-.049-.109-.12-.099-.19.023-.14.199-.268.368-.172.438.255.862.541 1.233.875 0 .001.044-.311-.014-.62-.063-.328-.21-.571-.21-.571-.442-.603-1.076-1.276-1.712-1.64-.252-.146.017-.507.271-.361.438.253.858.539 1.229.873-.541-2.703-1.574-4.014-2.881-3.855-.618.074-1.319.521-.974 2.378l.668 3.577a2.456 2.456 0 0 0-4.278.6h-1.64v9.497h15.2v-9.496zm-1.52 7.978H18.752v-6.46H30.91v6.46z"/></g></svg>