<?xml version="1.0" standalone="no"?>
<!DOCTYPE svg PUBLIC "-//W3C//DTD SVG 20010904//EN"
 "http://www.w3.org/TR/2001/REC-SVG-20010904/DTD/svg10.dtd">
<svg version="1.0" xmlns="http://www.w3.org/2000/svg"
 width="228.000000pt" height="228.000000pt" viewBox="0 0 228.000000 228.000000"
 preserveAspectRatio="xMidYMid meet">
<metadata>
Created by potrace 1.11, written by Peter Selinger 2001-2013
</metadata>
<g transform="translate(0.000000,228.000000) scale(0.100000,-0.100000)"
fill="#000000" stroke="none">
<path d="M1020 2270 c0 -5 -12 -7 -26 -4 -19 3 -24 1 -18 -8 6 -10 5 -10 -8 0
-13 10 -18 10 -24 1 -5 -8 -3 -10 7 -4 8 5 10 4 6 0 -10 -12 -38 -15 -31 -4 3
5 0 9 -5 9 -6 0 -11 -7 -11 -15 0 -8 -5 -15 -11 -15 -5 0 -7 6 -3 13 5 8 3 8
-9 -2 -9 -7 -14 -17 -12 -22 6 -8 -34 -4 -43 6 -3 2 -11 0 -19 -6 -7 -6 -13
-8 -13 -4 0 4 -7 1 -16 -6 -9 -7 -23 -14 -32 -16 -9 -1 -22 -9 -28 -17 -6 -9
-14 -13 -17 -10 -3 4 -13 0 -21 -7 -36 -33 -51 -44 -59 -44 -11 0 -57 -45 -57
-57 0 -5 -5 -6 -10 -3 -6 4 -9 1 -8 -6 2 -7 -3 -13 -9 -14 -7 0 -14 -4 -15 -9
-2 -4 -20 -26 -40 -47 -25 -26 -35 -45 -31 -56 5 -12 3 -14 -8 -8 -8 4 -11 5
-7 0 4 -4 -2 -16 -14 -26 -19 -17 -16 -21 10 -18 4 1 6 6 4 12 -2 6 5 4 14 -4
15 -12 17 -12 9 0 -6 10 -4 12 6 6 8 -5 11 -5 7 0 -4 4 -3 14 2 21 6 6 9 18 8
25 -2 8 2 13 8 12 7 -1 11 5 10 15 0 9 5 17 12 18 6 1 15 3 20 4 4 1 11 2 15
1 5 -1 5 3 2 9 -4 6 1 21 12 32 12 14 13 19 3 13 -9 -5 -12 -5 -7 1 5 5 13 10
18 10 5 1 14 2 20 3 5 0 7 6 4 11 -4 6 -11 7 -17 4 -7 -4 -8 -2 -4 5 4 6 12 8
18 5 7 -4 8 -2 4 4 -4 7 1 10 14 7 13 -3 18 0 14 7 -5 7 -2 8 6 3 9 -6 11 -4
5 5 -5 8 -4 11 3 7 5 -4 9 -13 8 -21 -3 -21 -27 -47 -37 -40 -5 3 -9 -2 -9
-10 0 -9 -5 -16 -11 -16 -5 0 -7 -5 -3 -12 4 -6 3 -8 -4 -4 -6 3 -13 -3 -17
-14 -3 -11 -11 -20 -16 -20 -6 0 -8 -4 -4 -9 3 -6 -1 -13 -9 -18 -13 -7 -16
-12 -16 -29 0 -4 -7 -1 -15 6 -9 8 -15 9 -15 2 0 -6 5 -14 11 -17 7 -5 4 -14
-7 -26 -9 -10 -14 -19 -10 -19 4 0 1 -10 -6 -22 -6 -13 -13 -30 -14 -38 -2 -8
-7 -16 -13 -18 -5 -2 -8 -9 -5 -17 3 -7 0 -16 -5 -20 -6 -3 -8 -11 -5 -17 4
-7 2 -8 -4 -4 -8 5 -11 -3 -8 -24 2 -17 0 -33 -5 -35 -4 -3 -6 -17 -3 -30 2
-14 1 -25 -4 -25 -12 0 -9 -133 3 -142 6 -5 5 -8 -3 -8 -10 0 -10 -5 -2 -20 9
-17 7 -24 -12 -41 l-23 -20 23 6 c12 4 22 3 23 -2 1 -4 2 -19 3 -33 2 -14 8
-35 15 -48 6 -12 8 -22 4 -22 -4 0 -2 -5 4 -11 6 -6 9 -18 6 -25 -3 -8 0 -14
7 -14 6 0 8 -4 5 -10 -3 -5 0 -10 7 -10 9 0 9 -3 -2 -10 -14 -9 -7 -14 13 -11
5 1 6 -3 2 -9 -3 -5 -1 -10 4 -10 6 0 11 -6 11 -14 0 -7 6 -19 14 -26 8 -6 12
-19 9 -27 -5 -12 -3 -14 7 -8 8 5 11 4 6 -3 -3 -6 -2 -13 4 -17 6 -4 8 -10 6
-14 -3 -4 4 -14 15 -21 10 -8 19 -22 19 -32 0 -10 6 -18 13 -18 8 0 7 -4 -3
-10 -13 -8 -13 -10 1 -10 15 0 26 -15 29 -38 1 -4 12 -20 24 -37 13 -16 22
-40 21 -53 -1 -15 3 -21 14 -20 9 2 16 -4 16 -14 0 -10 -3 -18 -7 -18 -31 0
-32 1 -18 11 13 9 12 10 -3 5 -10 -3 -16 -2 -13 2 6 10 -16 36 -34 40 -13 2
-13 1 0 -10 8 -7 16 -19 18 -27 1 -7 9 -19 17 -27 7 -8 17 -23 20 -34 3 -11
11 -20 16 -20 6 0 7 -5 4 -10 -3 -6 1 -13 9 -16 9 -3 14 -10 11 -14 -3 -5 2
-13 11 -18 9 -5 15 -13 15 -18 -2 -15 38 -64 52 -64 8 0 8 3 -2 9 -7 5 -9 11
-5 13 5 3 3 3 -4 1 -8 -1 -10 2 -6 9 4 7 3 8 -4 4 -8 -5 -10 -1 -5 10 4 12 3
15 -6 10 -6 -4 -10 -4 -9 1 1 4 -3 18 -10 29 -6 12 -8 25 -4 29 4 5 1 5 -7 0
-9 -5 -12 -4 -7 3 5 8 1 10 -11 6 -15 -5 -16 -4 -3 5 13 9 13 11 0 11 -13 0
-13 1 0 10 13 9 13 10 0 11 -8 1 -18 1 -22 1 -3 -1 -8 4 -11 12 -8 19 33 13
45 -7 5 -9 6 -17 2 -17 -4 0 3 -9 16 -20 15 -13 18 -20 9 -20 -11 0 -11 -2 1
-10 8 -5 15 -15 15 -22 1 -7 6 -12 13 -11 6 2 9 -3 6 -11 -3 -7 2 -16 11 -20
9 -3 14 -10 11 -15 -3 -5 1 -14 8 -21 8 -6 13 -20 11 -32 -3 -14 0 -18 11 -14
9 3 12 1 9 -4 -3 -6 -1 -10 5 -10 6 0 8 -4 5 -10 -3 -5 -1 -10 5 -10 6 0 9 -4
6 -9 -4 -5 0 -12 6 -14 10 -4 10 -6 1 -6 -7 -1 -18 9 -24 22 -7 12 -18 26 -26
30 -7 5 -11 12 -8 17 3 5 1 11 -5 15 -6 4 -8 11 -5 16 4 5 -2 6 -11 2 -11 -4
-13 -8 -6 -11 7 -2 12 -9 12 -16 0 -7 8 -21 18 -32 9 -11 22 -28 28 -39 5 -10
19 -20 29 -21 18 -3 29 -15 25 -30 -1 -4 4 -11 12 -16 10 -8 10 -9 -2 -5 -8 2
-14 9 -13 15 1 5 -4 16 -12 22 -20 16 -19 5 2 -31 10 -16 24 -28 32 -26 9 1
16 -3 16 -10 0 -6 3 -15 7 -19 4 -4 3 -13 -2 -19 -7 -9 -6 -16 5 -25 9 -7 15
-8 15 -2 0 6 -5 13 -10 15 -6 3 -5 4 2 3 7 -2 13 -13 12 -25 0 -11 5 -21 12
-21 7 0 18 -10 24 -22 11 -22 10 -22 -4 -4 -9 11 -16 15 -16 8 0 -6 10 -18 23
-27 12 -8 20 -16 19 -18 -6 -4 21 -57 28 -57 4 0 10 -8 13 -17 4 -10 18 -36
32 -58 13 -22 30 -50 37 -63 13 -26 54 -39 77 -25 24 15 679 1191 703 1263 25
73 25 74 36 151 56 385 -207 754 -603 845 -44 10 -335 13 -335 4z m-184 -62
c4 -7 4 -10 0 -7 -4 4 -19 -4 -33 -17 -14 -13 -29 -21 -33 -19 -4 3 -11 -2
-14 -10 -3 -8 -9 -15 -13 -14 -21 4 -33 -2 -27 -13 4 -6 3 -9 -2 -6 -10 7 -36
-17 -28 -25 3 -3 0 -8 -7 -13 -7 -4 -10 -3 -5 4 3 6 -1 15 -10 20 -14 8 -12
12 14 30 16 12 32 19 35 15 4 -3 15 5 26 18 11 13 20 20 21 15 0 -5 10 -1 22
10 12 10 18 13 14 7 -4 -7 -3 -13 2 -13 6 0 12 7 16 15 7 18 13 19 22 3z
m-289 -200 c-7 -10 -17 -18 -24 -18 -15 0 -51 -52 -46 -66 2 -6 -4 -17 -14
-25 -16 -13 -17 -12 -5 3 8 9 11 21 8 27 -4 5 10 27 31 48 20 21 36 41 36 44
-1 3 4 6 12 6 10 0 11 -4 2 -19z"/>
<path d="M745 2169 c-4 -6 -5 -12 -2 -15 2 -3 7 2 10 11 7 17 1 20 -8 4z"/>
<path d="M686 2135 c-11 -8 -17 -17 -14 -20 2 -3 13 4 23 15 21 23 18 25 -9 5z"/>
<path d="M860 2241 c0 -7 -5 -9 -12 -5 -7 5 -8 3 -3 -5 5 -9 10 -10 18 -2 6 6
8 14 4 18 -4 3 -7 1 -7 -6z"/>
<path d="M614 2069 c-8 -14 14 -19 25 -6 8 10 7 14 -5 14 -8 0 -17 -4 -20 -8z"/>
<path d="M575 2020 c-10 -11 -16 -22 -14 -24 2 -2 12 7 22 20 22 29 17 32 -8
4z"/>
<path d="M533 1964 c-5 -13 -7 -13 -14 -2 -6 9 -8 6 -6 -9 2 -12 7 -26 12 -30
4 -5 5 -2 1 5 -4 7 -1 14 7 18 7 2 14 11 14 19 0 20 -6 19 -14 -1z"/>
<path d="M489 1906 c-1 -3 -2 -10 -3 -15 -1 -12 -15 -26 -27 -27 -5 -1 -11 -3
-14 -4 -7 -3 -23 -7 -36 -9 -6 0 -9 -8 -5 -16 3 -8 -2 -19 -12 -24 -9 -6 -12
-11 -7 -11 6 0 3 -5 -5 -10 -10 -6 -11 -10 -2 -10 6 0 12 -5 12 -11 0 -5 -4
-8 -9 -5 -12 8 -22 -20 -14 -41 4 -10 2 -14 -4 -10 -5 3 -10 1 -11 -6 -6 -48
-10 -72 -12 -72 -1 0 -3 -46 -5 -102 -2 -93 0 -101 17 -100 10 1 18 5 18 10 0
5 -8 6 -17 3 -17 -6 -17 -5 0 8 15 11 15 15 3 19 -17 7 -15 35 3 46 10 6 9 10
-2 14 -19 7 -16 35 4 48 11 7 11 9 1 9 -7 0 -10 5 -6 11 4 8 9 7 15 -2 4 -7 5
-17 2 -23 -3 -5 -1 -6 5 -2 6 3 9 -1 7 -11 -1 -10 0 -22 4 -28 9 -16 8 -29 -4
-45 -6 -8 -10 -21 -9 -27 1 -7 2 -18 3 -24 0 -5 5 -8 10 -4 5 3 13 1 16 -5 4
-6 3 -10 -2 -9 -4 1 -10 0 -13 -1 -19 -7 -39 -7 -35 1 4 5 -1 6 -10 2 -9 -3
-13 -9 -8 -12 4 -3 9 -22 11 -41 4 -55 5 -60 15 -60 5 0 6 7 3 16 -4 10 -2 13
6 8 7 -5 8 -3 3 7 -7 11 -5 11 10 -1 10 -8 21 -14 24 -12 3 2 7 -2 9 -10 3
-11 2 -11 -6 0 -7 11 -10 11 -16 -3 -3 -9 -10 -14 -15 -10 -5 3 -13 0 -17 -6
-5 -8 -1 -10 14 -7 15 4 19 2 15 -8 -3 -8 -10 -11 -16 -7 -6 4 -7 1 -1 -8 4
-8 10 -23 11 -34 2 -10 9 -23 16 -27 6 -4 8 -8 3 -8 -5 0 -3 -7 4 -15 7 -8 9
-15 4 -15 -4 0 3 -12 17 -26 13 -14 24 -29 23 -32 -3 -15 29 -51 39 -45 6 4 8
0 5 -8 -7 -17 18 -56 29 -45 4 4 2 11 -6 15 -10 7 -10 9 1 14 16 6 21 -21 7
-38 -4 -6 5 -26 21 -45 23 -28 31 -32 42 -22 12 9 15 9 15 -3 0 -7 -3 -14 -6
-13 -3 0 -13 0 -21 -1 -13 -1 -13 -3 0 -10 8 -6 18 -7 22 -5 4 3 8 1 8 -5 0
-5 -3 -11 -7 -14 -5 -2 -2 -2 6 0 8 2 11 -2 7 -12 -3 -8 -1 -16 4 -16 6 -1 15
-2 20 -3 6 0 15 -8 20 -16 8 -12 10 -11 7 5 -1 12 -13 35 -25 53 -13 18 -20
32 -16 32 3 0 1 7 -6 15 -7 8 -16 12 -21 9 -8 -5 -13 9 -10 29 0 4 -4 7 -10 7
-5 0 -7 5 -4 11 4 6 -3 21 -16 35 -12 13 -19 24 -14 24 5 0 -2 11 -15 25 -13
14 -18 25 -11 25 7 0 -4 20 -23 43 -20 24 -33 47 -29 50 3 4 1 7 -4 7 -6 0
-10 11 -8 25 1 14 -2 28 -7 31 -4 3 -6 10 -3 15 4 5 2 9 -3 9 -5 0 -9 6 -10
13 -1 6 -3 25 -5 42 -2 17 -9 30 -18 31 -31 2 -32 5 -10 28 20 21 21 25 7 39
-17 16 -22 32 -8 23 11 -6 9 95 -1 112 -5 7 -3 12 5 12 7 1 2 7 -11 14 -15 8
-20 16 -12 20 6 4 11 2 11 -4 0 -7 6 -10 13 -7 6 2 12 12 12 23 0 10 4 24 8
31 4 6 3 14 -3 18 -5 3 -10 11 -10 16 0 6 4 7 10 4 5 -3 7 0 4 8 -3 8 2 20 11
27 17 14 20 30 4 30 -5 0 -7 -5 -3 -12 5 -7 3 -8 -6 -3 -9 5 -11 4 -6 -4 4 -6
4 -11 -1 -10 -4 1 -10 0 -13 -1 -19 -7 -40 -7 -40 1 0 5 5 9 10 9 19 0 25 2
38 12 6 6 12 15 12 20 0 6 -6 6 -14 -1 -17 -15 -28 -1 -15 19 7 13 9 13 9 1 0
-8 3 -11 7 -8 3 4 12 2 18 -3 9 -7 16 -6 25 5 7 8 10 15 6 15 -4 0 1 11 10 25
9 14 13 25 9 25 -5 0 0 9 9 19 11 12 14 21 7 26 -6 3 -12 4 -12 1z m-22 -70
c-6 -12 -11 -24 -12 -28 0 -9 -9 -10 -29 -2 -15 6 -16 28 -1 41 4 4 5 3 1 -4
-4 -8 1 -11 14 -10 11 1 19 6 16 12 -2 7 2 12 9 12 11 0 12 -5 2 -21z m-60
-120 c-15 -22 -15 -25 0 -30 10 -4 12 -10 5 -19 -5 -6 -8 -20 -6 -31 2 -14 0
-16 -9 -7 -8 8 -17 5 -33 -10 -21 -20 -28 -10 -13 16 4 6 5 18 4 28 -2 10 1
14 8 10 6 -4 8 -1 5 8 -3 8 0 23 8 34 10 14 14 15 14 4 1 -10 3 -9 11 4 5 9
13 17 16 17 3 0 -2 -11 -10 -24z m-21 -315 c-14 -16 -15 -20 -2 -30 8 -7 19
-10 24 -7 5 3 9 -1 9 -8 0 -15 -27 -9 -39 8 -5 7 -8 7 -8 -1 0 -7 -4 -13 -8
-13 -5 0 -8 12 -7 28 0 15 6 27 12 27 6 0 15 3 19 8 16 15 16 6 0 -12z m39
-99 c-2 -3 1 -14 7 -26 7 -11 12 -33 13 -48 1 -15 10 -37 21 -49 10 -13 13
-19 5 -14 -9 5 -12 3 -9 -6 3 -8 11 -13 18 -11 10 2 10 -1 -1 -14 -13 -15 -12
-16 10 -9 19 6 23 4 18 -8 -3 -8 3 -23 13 -32 11 -10 17 -22 14 -27 -3 -5 -14
-2 -23 6 -10 9 -21 14 -24 11 -4 -3 -5 -2 -2 2 3 3 -4 13 -15 20 -11 8 -18 18
-15 22 2 5 -4 16 -15 26 -11 10 -17 21 -15 26 3 4 1 10 -5 14 -6 4 -8 10 -5
15 3 5 1 12 -5 15 -8 5 -6 15 5 32 16 24 16 25 -7 18 -12 -3 -18 -3 -12 2 6 4
10 15 9 24 -2 9 4 16 11 16 8 0 12 -2 9 -5z m140 -310 c1 -16 6 -36 10 -43 4
-8 -4 0 -18 16 -18 21 -22 34 -15 42 5 7 6 18 2 25 -5 10 -4 10 6 1 7 -6 13
-25 15 -41z m85 -117 c11 -13 10 -14 -4 -9 -9 3 -16 10 -16 15 0 13 6 11 20
-6z"/>
<path d="M435 1821 c-3 -5 -2 -12 3 -15 5 -3 9 1 9 9 0 17 -3 19 -12 6z"/>
<path d="M375 1701 c-3 -5 0 -13 5 -16 7 -5 5 -12 -7 -21 -10 -7 -14 -14 -9
-14 5 0 2 -8 -5 -17 -13 -17 -13 -17 7 0 11 9 24 15 27 12 4 -3 5 -2 2 2 -3 3
0 12 5 18 8 9 6 14 -5 19 -9 3 -13 10 -10 16 3 5 4 10 1 10 -3 0 -7 -4 -11 -9z"/>
<path d="M420 1241 c-7 -14 -7 -22 0 -26 6 -4 8 -11 5 -16 -4 -5 1 -12 10 -15
11 -5 13 -9 6 -14 -8 -4 -4 -13 11 -26 17 -14 19 -15 9 -2 -7 9 -10 22 -6 28
3 5 0 13 -8 16 -9 3 -13 18 -12 39 2 40 0 42 -15 16z"/>
<path d="M468 1110 c4 -3 21 -16 37 -30 l30 -25 -23 26 c-12 14 -20 28 -18 30
3 3 -4 5 -14 5 -11 0 -16 -3 -12 -6z"/>
<path d="M545 1001 c-3 -5 -2 -12 3 -15 5 -3 9 1 9 9 0 17 -3 19 -12 6z"/>
<path d="M352 1558 c2 -7 10 -18 18 -25 13 -10 13 -12 -1 -18 -9 -3 -16 -12
-16 -20 0 -10 5 -11 18 -5 14 8 19 35 9 48 -2 1 -3 7 -4 14 0 6 -7 13 -14 16
-7 2 -11 -2 -10 -10z"/>
<path d="M926 381 c-3 -5 2 -15 12 -22 15 -12 16 -12 5 2 -7 9 -10 19 -6 22 3
4 4 7 0 7 -3 0 -8 -4 -11 -9z"/>
</g>
</svg>
